# xmcd CD database file
#
# Track frame offsets:
#	150
#	16630
#	37960
#	54440
#
# Disc length: 1008 seconds
#
# Revision: 0
# Processed by: cddbd v1.5.1PL2 Copyright (c) Steve Scherf et al.
# Submitted via: CDex 1.51
#
DISCID=2003ee04
DTITLE=山田千鶴 - 林檎のうさぎ
DYEAR=2002
DGENRE=JPop
TTITLE0=林檎のうさぎ
TTITLE1=振り向けばいつもあなたが
TTITLE2=林檎のうさぎ（オリジナル・カラオケ）
TTITLE3=振り向けばいつもあなたが（オリジナル・カラオケ）
EXTD=YEAR: 2002
EXTT0=
EXTT1=
EXTT2=
EXTT3=
PLAYORDER=
